<?xml version="1.0" encoding="UTF-8"?>
<svg id="Layer_2" data-name="Layer 2" xmlns="http://www.w3.org/2000/svg" viewBox="0 0 612.13 142.73">
  <defs>
    <style>
      .cls-1 {
        fill: none;
        stroke: #000;
        stroke-linecap: round;
        stroke-linejoin: round;
      }

      .cls-2 {
        stroke-width: 0px;
      }
    </style>
  </defs>
  <g id="Layer_1-2" data-name="Layer 1">
    <g>
      <path class="cls-2" d="m120.68,8.32c1.06,32.66,3.06,79.92,3.39,112.18.04,1.93-1.5,3.53-3.43,3.56-7.07.13-21.07.36-28.13.41-24.94.33-59.06.46-84,.52-2.49,0-4.51-2.01-4.5-4.5.19-16.55.02-39.69.23-56,.29-16.5.29-39.85.71-56.13.04-1.93,1.63-3.46,3.55-3.42,32.09.31,79.7,2.29,112.18,3.38h0Zm-.35.35c.16-.12-113.46.72-111.45-.18,0,0,.13,112,.13,112,0,0-.5-.5-.5-.5,0,0,112,.12,112,.12-.93,2.31.08-111.93-.18-111.45h0Z"/>
      <path class="cls-2" d="m120.12,64.5c.22-22.03-13.89-43.18-34.34-51.39C49.27-2.03,8.87,24.97,8.88,64.5c0,39.53,40.4,66.53,76.91,51.39,20.45-8.21,34.56-29.36,34.34-51.39h0Zm.75,0c.22,22.32-14.08,43.76-34.8,52.08-37.01,15.34-77.95-12.02-77.95-52.08,0-40.06,40.94-67.42,77.95-52.08,20.72,8.32,35.03,29.75,34.8,52.08h0Z"/>
      <circle class="cls-1" cx="10.5" cy="9.5" r="8"/>
      <circle class="cls-1" cx="120.5" cy="8.5" r="8"/>
      <circle class="cls-1" cx="120.5" cy="120.5" r="8"/>
      <circle class="cls-1" cx="8.5" cy="120.5" r="8"/>
      <g>
        <path class="cls-2" d="m158.25,107.69c0-3.74,2.69-7.49,7.68-10.37v-.38c-2.5-1.34-4.8-3.74-4.8-7.68,0-2.98,2.02-6.33,5.57-8.73v-.38c-3.17-2.4-5.76-6.53-5.76-12.09,0-10.18,8.45-16.7,18.33-16.7,2.69,0,4.9.38,6.91,1.15h19.29v6.43h-12.09c2.11,2.21,3.94,5.66,3.94,9.41,0,9.98-7.97,16.03-18.05,16.03-2.4,0-5.28-.58-7.87-1.73-2.3,1.44-3.65,3.17-3.65,5.38,0,3.65,3.55,5.38,9.69,5.38h10.46c12,0,17.76,3.07,17.76,10.94,0,8.74-10.08,16.32-25.92,16.32-13.63,0-21.5-4.7-21.5-12.96Zm39.64-2.11c0-4.42-3.55-5.66-10.65-5.66h-9.12c-2.69,0-5.09-.19-7.1-.77-4.42,2.4-5.95,5.09-5.95,7.78,0,4.9,5.28,7.97,15.26,7.97,10.85,0,17.57-4.51,17.57-9.31Zm-7.87-37.53c0-6.53-4.8-10.94-10.75-10.94s-10.75,4.42-10.75,10.94,4.9,11.04,10.75,11.04,10.75-4.32,10.75-11.04Z"/>
        <path class="cls-2" d="m222.85,52.49h6.62l.77,11.04h.19c4.9-7.58,12.19-12.19,20.83-12.19,3.46,0,6.34.48,9.21,1.92l-1.82,6.82c-3.26-1.06-4.99-1.54-8.64-1.54-7.01,0-13.63,3.55-19.2,13.34v27.26h-7.97v-46.65Z"/>
        <path class="cls-2" d="m274.21,87.05c0-10.46,9.79-15.55,33.89-17.47-.29-6.34-3.36-11.71-12.38-11.71-6.05,0-12,2.88-16.32,5.57l-3.17-5.38c4.8-3.07,12.67-6.72,20.83-6.72,12.77,0,19.01,7.58,19.01,19.2v28.61h-6.62l-.67-6.33h-.29c-5.09,4.03-11.81,7.49-18.33,7.49-8.74,0-15.93-4.89-15.93-13.25Zm33.89-.1v-12.1c-19.97,1.54-26.01,5.47-26.01,11.62,0,5.28,4.8,7.39,10.18,7.39s10.46-2.5,15.84-6.91Z"/>
        <path class="cls-2" d="m333.06,52.49h6.53l.67,5.95h.29c4.32-4.13,10.46-7.1,16.13-7.1,12.58,0,19.29,9.31,19.29,23.81,0,15.84-9.98,25.15-21.21,25.15-4.32,0-9.7-2.21-13.92-6.05h-.19l.38,8.83v15.74h-7.97V52.49Zm34.75,22.65c0-10.27-3.84-17.09-13.15-17.09-4.13,0-8.93,2.11-13.63,6.91v23.23c4.32,3.94,9.22,5.38,12.38,5.38,8.25,0,14.4-6.91,14.4-18.43Z"/>
        <path class="cls-2" d="m390.66,30.8h7.97v18.62l-.48,11.04h.29c4.7-5.18,10.17-9.12,17.37-9.12,11.04,0,16.13,6.53,16.13,18.81v28.99h-7.97v-27.93c0-8.83-3.07-12.96-10.66-12.96-5.57,0-9.31,2.78-14.69,8.35v32.54h-7.97V30.8Z"/>
        <path class="cls-2" d="m462.95,83.5v-46.27h-16.51v-6.43h24.48v53.28c0,6.72,3.65,9.6,9.21,9.6,2.69,0,5.57-.67,8.74-2.11l2.02,5.95c-4.32,1.82-7.39,2.78-12.48,2.78-9.98,0-15.46-5.76-15.46-16.8Z"/>
        <path class="cls-2" d="m527.17,58.92h-21.6v-6.43h29.57v46.65h-7.97v-40.22Zm-3.17-22.37c0-3.65,2.69-6.14,6.33-6.14s6.34,2.5,6.34,6.14-2.69,6.14-6.34,6.14-6.33-2.4-6.33-6.14Z"/>
        <path class="cls-2" d="m570.85,93.96h-.29l-.77,5.18h-6.33V30.8h7.97v18.62l-.38,9.02h.29c4.22-4.32,10.17-7.1,15.65-7.1,12.58,0,19.39,9.31,19.39,23.71,0,15.94-9.98,25.25-21.02,25.25-4.61,0-10.17-2.4-14.5-6.33Zm27.36-18.81c0-10.27-3.84-17.09-13.15-17.09-4.13,0-8.93,2.11-13.63,6.91v23.23c4.32,3.94,9.22,5.38,12.58,5.38,8.06,0,14.21-6.91,14.21-18.43Z"/>
      </g>
    </g>
  </g>
</svg>