<?xml version="1.0" encoding="UTF-8"?>
<svg id="Layer_2" data-name="Layer 2" xmlns="http://www.w3.org/2000/svg" viewBox="0 0 129 129">
  <defs>
    <style>
      .cls-1 {
        fill: none;
        stroke: #000;
        stroke-linecap: round;
        stroke-linejoin: round;
      }

      .cls-2 {
        stroke-width: 0px;
      }
    </style>
  </defs>
  <g id="Layer_1-2" data-name="Layer 1">
    <path class="cls-2" d="m120.68,8.32c1.06,32.66,3.06,79.92,3.39,112.18.04,1.93-1.5,3.53-3.43,3.56-7.07.13-21.07.36-28.13.41-24.94.33-59.06.46-84,.52-2.49,0-4.51-2.01-4.5-4.5.19-16.55.02-39.69.23-56,.29-16.5.29-39.85.71-56.13.04-1.93,1.63-3.46,3.55-3.42,32.09.31,79.7,2.29,112.18,3.38h0Zm-.35.35c.16-.12-113.46.72-111.45-.18,0,0,.13,112,.13,112,0,0-.5-.5-.5-.5,0,0,112,.12,112,.12-.93,2.31.08-111.93-.18-111.45h0Z"/>
    <path class="cls-2" d="m120.12,64.5c.22-22.03-13.89-43.18-34.34-51.39C49.27-2.03,8.87,24.97,8.88,64.5c0,39.53,40.4,66.53,76.91,51.39,20.45-8.21,34.56-29.36,34.34-51.39h0Zm.75,0c.22,22.32-14.08,43.76-34.8,52.08-37.01,15.34-77.95-12.02-77.95-52.08,0-40.06,40.94-67.42,77.95-52.08,20.72,8.32,35.03,29.75,34.8,52.08h0Z"/>
    <circle class="cls-1" cx="10.5" cy="9.5" r="8"/>
    <circle class="cls-1" cx="120.5" cy="8.5" r="8"/>
    <circle class="cls-1" cx="120.5" cy="120.5" r="8"/>
    <circle class="cls-1" cx="8.5" cy="120.5" r="8"/>
  </g>
</svg>
